<svg width="205" height="138" viewBox="0 0 205 138" fill="none" xmlns="http://www.w3.org/2000/svg">
<path d="M13 102.012C17 112.012 31.8 129.612 51 130.012C70.2 130.412 85 119.512 91.5 108.512C98 97.5124 110.357 41.0123 115.5 29.0122C120.643 17.0122 137.3 7.61231 154.5 8.01231C171.7 8.41231 192 25.0122 196 33.5122" stroke="url(#paint0_linear_104_6967)" stroke-width="15"/>
<path d="M13 104.012C4.49995 85.5124 9.00033 74.0124 9.00033 74.0124C9.29705 72.0345 12.0003 65.0124 18.5003 55.5124C25.0003 46.0124 36.5004 41.0124 47.0004 38.5124C55.4004 36.5124 151.5 37.6791 197.5 38.5124C197.5 46.3457 197.5 56.0124 196 65.5124C194.129 77.3655 180.5 95.0124 163.5 98.5124H7" stroke="white" stroke-width="15"/>
<defs>
<linearGradient id="paint0_linear_104_6967" x1="13" y1="114" x2="196" y2="27.5" gradientUnits="userSpaceOnUse">
<stop stop-color="#9000FF"/>
<stop offset="1" stop-color="#00FFCC"/>
</linearGradient>
</defs>
</svg>
