<svg width="133" height="25" viewBox="0 0 133 25" fill="none" xmlns="http://www.w3.org/2000/svg">
<path d="M9.24683 25C7.23846 25 5.32425 24.3497 3.71337 23.1237C2.1548 21.9403 0.98326 20.2559 0.418408 18.3689C0.146443 17.4627 0 16.5245 0 15.5757H2.61505C2.61505 16.258 2.71965 16.9403 2.90794 17.58C3.77614 20.4158 6.31797 22.3241 9.23637 22.3241C12.1443 22.3241 14.6861 20.4264 15.5543 17.5906C15.6589 17.1962 17.4685 10.3625 18.4309 6.76972L18.4413 6.73774C19.0062 4.77612 20.1568 3.09168 21.7677 1.86567C23.3786 0.65032 25.2928 0 27.3011 0C29.7698 0 32.0919 0.98081 33.8388 2.76119C35.5856 4.54158 36.548 6.90832 36.548 9.42431H33.9329C33.9329 7.6226 33.2425 5.92751 31.9873 4.64819C30.7426 3.36887 29.0794 2.66525 27.3011 2.66525C24.3932 2.66525 21.7782 4.64819 20.9518 7.48401C18.0962 18.2409 18.0752 18.3369 18.0648 18.3689C17.479 20.2985 16.3179 21.951 14.728 23.1556C13.1276 24.3603 11.2343 25 9.24683 25Z" fill="#A7B2CD"/>
<path d="M26.8409 19.3073H0.700834L0.418408 18.3692C0.146443 17.463 0 16.5248 0 15.576C0 12.9321 1.01464 10.4481 2.84518 8.5824C4.67571 6.71673 7.11294 5.68262 9.70707 5.68262H35.8471L36.1296 6.62078C36.4015 7.52697 36.548 8.46513 36.548 9.41396C36.548 12.0579 35.5333 14.5419 33.7028 16.4076C31.8723 18.2839 29.435 19.3073 26.8409 19.3073ZM2.69873 16.6421H26.8409C28.7342 16.6421 30.5124 15.8852 31.8513 14.5206C33.1902 13.156 33.9329 11.3436 33.9329 9.41396C33.9329 9.05149 33.9015 8.69967 33.8492 8.34786H9.70707C7.81378 8.34786 6.03554 9.10479 4.69663 10.4694C3.35773 11.834 2.61505 13.6464 2.61505 15.576C2.61505 15.9385 2.64643 16.2903 2.69873 16.6421Z" fill="#A7B2CD"/>
<path d="M50.936 16.3575C50.936 16.8622 50.8414 17.3358 50.6522 17.7782C50.4697 18.2207 50.2163 18.6079 49.8919 18.9397C49.5675 19.2716 49.189 19.5343 48.7565 19.7279C48.324 19.9146 47.8611 20.0079 47.3677 20.0079H46.3337C45.8404 20.0079 45.3741 19.9146 44.9348 19.7279C44.5023 19.5343 44.1238 19.2716 43.7994 18.9397C43.4751 18.6079 43.2182 18.2207 43.029 17.7782C42.8465 17.3358 42.7553 16.8622 42.7553 16.3575V8.37212C42.7553 7.86742 42.8465 7.39383 43.029 6.95135C43.2182 6.50888 43.4751 6.12171 43.7994 5.78985C44.1238 5.45799 44.5023 5.19873 44.9348 5.01206C45.3741 4.81847 45.8404 4.72168 46.3337 4.72168H47.3677C47.8611 4.72168 48.324 4.81847 48.7565 5.01206C49.189 5.19873 49.5675 5.45799 49.8919 5.78985C50.2163 6.12171 50.4697 6.50888 50.6522 6.95135C50.8414 7.39383 50.936 7.86742 50.936 8.37212V8.97362L49.6283 9.18103V8.37212C49.6283 8.04026 49.5675 7.7326 49.4459 7.44914C49.3242 7.15876 49.1586 6.90641 48.9491 6.69209C48.7396 6.47776 48.493 6.30838 48.2091 6.18393C47.932 6.05948 47.6313 5.99726 47.3069 5.99726H46.3946C46.0702 5.99726 45.7661 6.05948 45.4822 6.18393C45.2051 6.30838 44.9585 6.47776 44.7422 6.69209C44.5327 6.90641 44.3671 7.15876 44.2455 7.44914C44.1238 7.7326 44.063 8.04026 44.063 8.37212V16.3575C44.063 16.6893 44.1238 17.0004 44.2455 17.2908C44.3671 17.5743 44.5327 17.8266 44.7422 18.0479C44.9585 18.2622 45.2051 18.4316 45.4822 18.556C45.7661 18.6805 46.0702 18.7427 46.3946 18.7427H47.3069C47.6313 18.7427 47.932 18.6805 48.2091 18.556C48.493 18.4316 48.7396 18.2622 48.9491 18.0479C49.1586 17.8266 49.3242 17.5743 49.4459 17.2908C49.5675 17.0004 49.6283 16.6893 49.6283 16.3575V15.5486L50.936 15.7663V16.3575Z" fill="#A7B2CD"/>
<path d="M53.8555 19.8005V4.92909H55.1024V19.8005H53.8555Z" fill="#A7B2CD"/>
<path d="M64.9558 16.8864C64.9558 17.315 64.8747 17.7195 64.7125 18.0997C64.557 18.48 64.3408 18.8118 64.0637 19.0953C63.7866 19.3788 63.4622 19.6035 63.0905 19.7694C62.7188 19.9284 62.3235 20.0079 61.9045 20.0079H61.0732C60.6542 20.0079 60.2589 19.9284 59.8872 19.7694C59.5155 19.6035 59.1911 19.3788 58.914 19.0953C58.6369 18.8118 58.4173 18.48 58.2551 18.0997C58.0996 17.7195 58.0219 17.315 58.0219 16.8864V12.0952C58.0219 11.6665 58.0996 11.2621 58.2551 10.8818C58.4173 10.5015 58.6369 10.1697 58.914 9.88623C59.1911 9.60276 59.5155 9.38152 59.8872 9.22251C60.2589 9.05658 60.6542 8.97362 61.0732 8.97362H61.9045C62.3235 8.97362 62.7188 9.05658 63.0905 9.22251C63.4622 9.38152 63.7866 9.60276 64.0637 9.88623C64.3408 10.1697 64.557 10.5015 64.7125 10.8818C64.8747 11.2621 64.9558 11.6665 64.9558 12.0952V14.5945H59.2688V16.959C59.2688 17.2148 59.3161 17.4567 59.4107 17.6849C59.5053 17.9061 59.6337 18.0997 59.7959 18.2656C59.9581 18.4316 60.1473 18.5629 60.3636 18.6597C60.5866 18.7565 60.8232 18.8049 61.0732 18.8049H61.9045C62.1545 18.8049 62.3877 18.7565 62.6039 18.6597C62.8269 18.5629 63.0196 18.4316 63.1817 18.2656C63.3439 18.0997 63.4723 17.9061 63.567 17.6849C63.6616 17.4567 63.7089 17.2148 63.7089 16.959V16.2538L64.9558 16.4612V16.8864ZM63.7089 12.0226C63.7089 11.7668 63.6616 11.5282 63.567 11.307C63.4723 11.0788 63.3439 10.8818 63.1817 10.7159C63.0196 10.5499 62.8269 10.4186 62.6039 10.3218C62.3877 10.225 62.1545 10.1766 61.9045 10.1766H61.0732C60.8232 10.1766 60.5866 10.225 60.3636 10.3218C60.1473 10.4186 59.9581 10.5499 59.7959 10.7159C59.6337 10.8818 59.5053 11.0788 59.4107 11.307C59.3161 11.5282 59.2688 11.7668 59.2688 12.0226V13.5989H63.7089V12.0226Z" fill="#A7B2CD"/>
<path d="M70.7035 19.8005H70.0852L66.4054 9.18103H67.6522L70.3589 17.2286L70.3994 17.7782L70.44 17.2286L73.1365 9.18103H74.3833L70.7035 19.8005Z" fill="#A7B2CD"/>
<path d="M82.7769 16.8864C82.7769 17.315 82.6958 17.7195 82.5336 18.0997C82.3782 18.48 82.1619 18.8118 81.8849 19.0953C81.6078 19.3788 81.2834 19.6035 80.9117 19.7694C80.54 19.9284 80.1446 20.0079 79.7256 20.0079H78.8944C78.4754 20.0079 78.08 19.9284 77.7083 19.7694C77.3366 19.6035 77.0122 19.3788 76.7352 19.0953C76.4581 18.8118 76.2384 18.48 76.0763 18.0997C75.9208 17.7195 75.8431 17.315 75.8431 16.8864V12.0952C75.8431 11.6665 75.9208 11.2621 76.0763 10.8818C76.2384 10.5015 76.4581 10.1697 76.7352 9.88623C77.0122 9.60276 77.3366 9.38152 77.7083 9.22251C78.08 9.05658 78.4754 8.97362 78.8944 8.97362H79.7256C80.1446 8.97362 80.54 9.05658 80.9117 9.22251C81.2834 9.38152 81.6078 9.60276 81.8849 9.88623C82.1619 10.1697 82.3782 10.5015 82.5336 10.8818C82.6958 11.2621 82.7769 11.6665 82.7769 12.0952V14.5945H77.09V16.959C77.09 17.2148 77.1373 17.4567 77.2319 17.6849C77.3265 17.9061 77.4549 18.0997 77.6171 18.2656C77.7793 18.4316 77.9685 18.5629 78.1848 18.6597C78.4078 18.7565 78.6443 18.8049 78.8944 18.8049H79.7256C79.9757 18.8049 80.2088 18.7565 80.4251 18.6597C80.6481 18.5629 80.8407 18.4316 81.0029 18.2656C81.1651 18.0997 81.2935 17.9061 81.3881 17.6849C81.4827 17.4567 81.5301 17.2148 81.5301 16.959V16.2538L82.7769 16.4612V16.8864ZM81.5301 12.0226C81.5301 11.7668 81.4827 11.5282 81.3881 11.307C81.2935 11.0788 81.1651 10.8818 81.0029 10.7159C80.8407 10.5499 80.6481 10.4186 80.4251 10.3218C80.2088 10.225 79.9757 10.1766 79.7256 10.1766H78.8944C78.6443 10.1766 78.4078 10.225 78.1848 10.3218C77.9685 10.4186 77.7793 10.5499 77.6171 10.7159C77.4549 10.8818 77.3265 11.0788 77.2319 11.307C77.1373 11.5282 77.09 11.7668 77.09 12.0226V13.5989H81.5301V12.0226Z" fill="#A7B2CD"/>
<path d="M88.322 10.3944C88.0719 10.3944 87.8354 10.4428 87.6124 10.5396C87.3961 10.6364 87.2069 10.7677 87.0447 10.9337C86.8825 11.0996 86.7541 11.2966 86.6595 11.5248C86.5649 11.746 86.5176 11.9845 86.5176 12.2403V19.8005H85.2707V9.18103H85.6863L86.3655 10.2596C86.6493 9.86548 87.0041 9.55437 87.4299 9.32621C87.8624 9.09115 88.3321 8.97362 88.839 8.97362H89.5688V10.3944H88.322Z" fill="#A7B2CD"/>
<path d="M100.027 16.3575C100.027 16.8622 99.9325 17.3358 99.7432 17.7782C99.5608 18.2207 99.3074 18.6079 98.983 18.9397C98.6586 19.2716 98.2801 19.5343 97.8476 19.7279C97.4151 19.9146 96.9521 20.0079 96.4588 20.0079H95.4248C94.9315 20.0079 94.4651 19.9146 94.0259 19.7279C93.5934 19.5343 93.2149 19.2716 92.8905 18.9397C92.5661 18.6079 92.3093 18.2207 92.1201 17.7782C91.9376 17.3358 91.8464 16.8622 91.8464 16.3575V8.37212C91.8464 7.86742 91.9376 7.39383 92.1201 6.95135C92.3093 6.50888 92.5661 6.12171 92.8905 5.78985C93.2149 5.45799 93.5934 5.19873 94.0259 5.01206C94.4651 4.81847 94.9315 4.72168 95.4248 4.72168H96.4588C96.9521 4.72168 97.4151 4.81847 97.8476 5.01206C98.2801 5.19873 98.6586 5.45799 98.983 5.78985C99.3074 6.12171 99.5608 6.50888 99.7432 6.95135C99.9325 7.39383 100.027 7.86742 100.027 8.37212V8.97362L98.7194 9.18103V8.37212C98.7194 8.04026 98.6586 7.7326 98.5369 7.44914C98.4153 7.15876 98.2497 6.90641 98.0402 6.69209C97.8307 6.47776 97.584 6.30838 97.3002 6.18393C97.0231 6.05948 96.7224 5.99726 96.398 5.99726H95.4856C95.1612 5.99726 94.8571 6.05948 94.5733 6.18393C94.2962 6.30838 94.0495 6.47776 93.8333 6.69209C93.6238 6.90641 93.4582 7.15876 93.3365 7.44914C93.2149 7.7326 93.1541 8.04026 93.1541 8.37212V16.3575C93.1541 16.6893 93.2149 17.0004 93.3365 17.2908C93.4582 17.5743 93.6238 17.8266 93.8333 18.0479C94.0495 18.2622 94.2962 18.4316 94.5733 18.556C94.8571 18.6805 95.1612 18.7427 95.4856 18.7427H96.398C96.7224 18.7427 97.0231 18.6805 97.3002 18.556C97.584 18.4316 97.8307 18.2622 98.0402 18.0479C98.2497 17.8266 98.4153 17.5743 98.5369 17.2908C98.6586 17.0004 98.7194 16.6893 98.7194 16.3575V15.5486L100.027 15.7663V16.3575Z" fill="#A7B2CD"/>
<path d="M108.218 19.8005V12.0226C108.218 11.7668 108.171 11.5282 108.076 11.307C107.981 11.0788 107.853 10.8818 107.691 10.7159C107.529 10.5499 107.336 10.4186 107.113 10.3218C106.897 10.225 106.664 10.1766 106.414 10.1766H105.582C105.332 10.1766 105.096 10.225 104.873 10.3218C104.656 10.4186 104.467 10.5499 104.305 10.7159C104.143 10.8818 104.014 11.0788 103.92 11.307C103.825 11.5282 103.778 11.7668 103.778 12.0226V19.8005H102.531V4.92909H103.778V10.0729C104.062 9.72721 104.403 9.45758 104.802 9.26399C105.2 9.07041 105.633 8.97362 106.099 8.97362H106.414C106.833 8.97362 107.228 9.05658 107.6 9.22251C107.971 9.38152 108.296 9.60276 108.573 9.88623C108.85 10.1697 109.066 10.5015 109.222 10.8818C109.384 11.2621 109.465 11.6665 109.465 12.0952V19.8005H108.218Z" fill="#A7B2CD"/>
<path d="M118.477 19.8005L117.787 18.7427C117.504 19.1229 117.149 19.4306 116.723 19.6657C116.297 19.8938 115.831 20.0079 115.324 20.0079H115.01C114.591 20.0079 114.196 19.9284 113.824 19.7694C113.452 19.6035 113.128 19.3788 112.851 19.0953C112.574 18.8118 112.354 18.48 112.192 18.0997C112.036 17.7195 111.959 17.315 111.959 16.8864V16.7827C111.959 16.354 112.036 15.9496 112.192 15.5693C112.354 15.189 112.574 14.8572 112.851 14.5737C113.128 14.2903 113.452 14.069 113.824 13.91C114.196 13.7441 114.591 13.6611 115.01 13.6611H117.646V12.0226C117.646 11.7668 117.598 11.5282 117.504 11.307C117.409 11.0788 117.281 10.8818 117.118 10.7159C116.956 10.5499 116.764 10.4186 116.541 10.3218C116.324 10.225 116.091 10.1766 115.841 10.1766H115.111C114.861 10.1766 114.625 10.225 114.402 10.3218C114.185 10.4186 113.996 10.5499 113.834 10.7159C113.672 10.8818 113.543 11.0788 113.449 11.307C113.354 11.5282 113.307 11.7668 113.307 12.0226V12.4063L112.06 12.1989V12.0952C112.06 11.6665 112.138 11.2621 112.293 10.8818C112.455 10.5015 112.675 10.1697 112.952 9.88623C113.229 9.60276 113.553 9.38152 113.925 9.22251C114.297 9.05658 114.692 8.97362 115.111 8.97362H115.841C116.26 8.97362 116.655 9.05658 117.027 9.22251C117.399 9.38152 117.723 9.60276 118 9.88623C118.277 10.1697 118.494 10.5015 118.649 10.8818C118.811 11.2621 118.892 11.6665 118.892 12.0952V19.8005H118.477ZM117.646 14.6567H115.01C114.76 14.6567 114.523 14.7051 114.3 14.8019C114.084 14.8987 113.895 15.0335 113.733 15.2063C113.57 15.3723 113.442 15.5693 113.347 15.7975C113.253 16.0187 113.205 16.2572 113.205 16.513V16.959C113.205 17.2148 113.253 17.4567 113.347 17.6849C113.442 17.9061 113.57 18.0997 113.733 18.2656C113.895 18.4316 114.084 18.5629 114.3 18.6597C114.523 18.7565 114.76 18.8049 115.01 18.8049H115.841C116.091 18.8049 116.324 18.7565 116.541 18.6597C116.764 18.5629 116.956 18.4316 117.118 18.2656C117.281 18.0997 117.409 17.9061 117.504 17.6849C117.598 17.4567 117.646 17.2148 117.646 16.959V14.6567Z" fill="#A7B2CD"/>
<path d="M121.7 6.62987V4.92909H123.15V6.62987H121.7ZM121.802 19.8005V9.18103H123.049V19.8005H121.802Z" fill="#A7B2CD"/>
<path d="M131.655 19.8005V12.0226C131.655 11.7668 131.608 11.5282 131.513 11.307C131.419 11.0788 131.29 10.8818 131.128 10.7159C130.966 10.5499 130.773 10.4186 130.55 10.3218C130.334 10.225 130.101 10.1766 129.851 10.1766H129.019C128.769 10.1766 128.533 10.225 128.31 10.3218C128.094 10.4186 127.904 10.5499 127.742 10.7159C127.58 10.8818 127.452 11.0788 127.357 11.307C127.262 11.5282 127.215 11.7668 127.215 12.0226V19.8005H125.968V9.18103H126.384L127.063 10.2596C127.347 9.86548 127.702 9.55437 128.127 9.32621C128.56 9.09115 129.03 8.97362 129.536 8.97362H129.851C130.27 8.97362 130.665 9.05658 131.037 9.22251C131.408 9.38152 131.733 9.60276 132.01 9.88623C132.287 10.1697 132.503 10.5015 132.659 10.8818C132.821 11.2621 132.902 11.6665 132.902 12.0952V19.8005H131.655Z" fill="#A7B2CD"/>
</svg>
