<svg width="184" height="32" viewBox="0 0 184 32" fill="none" xmlns="http://www.w3.org/2000/svg">
<path d="M65.6421 21.1113C65.6421 21.741 65.5213 22.3319 65.2798 22.884C65.0469 23.4361 64.7234 23.9192 64.3093 24.3333C63.8953 24.7473 63.4122 25.0751 62.8601 25.3167C62.308 25.5496 61.7171 25.666 61.0874 25.666H59.7676C59.1379 25.666 58.5426 25.5496 57.9819 25.3167C57.4299 25.0751 56.9468 24.7473 56.5327 24.3333C56.1187 23.9192 55.7909 23.4361 55.5493 22.884C55.3164 22.3319 55.2 21.741 55.2 21.1113V11.1479C55.2 10.5182 55.3164 9.92733 55.5493 9.37524C55.7909 8.82316 56.1187 8.34009 56.5327 7.92603C56.9468 7.51196 57.4299 7.18848 57.9819 6.95557C58.5426 6.71403 59.1379 6.59326 59.7676 6.59326H61.0874C61.7171 6.59326 62.308 6.71403 62.8601 6.95557C63.4122 7.18848 63.8953 7.51196 64.3093 7.92603C64.7234 8.34009 65.0469 8.82316 65.2798 9.37524C65.5213 9.92733 65.6421 10.5182 65.6421 11.1479V11.8984L63.9729 12.1572V11.1479C63.9729 10.7339 63.8953 10.35 63.74 9.99634C63.5847 9.63403 63.3734 9.31917 63.106 9.05176C62.8385 8.78434 62.5237 8.573 62.1614 8.41772C61.8077 8.26245 61.4238 8.18481 61.0098 8.18481H59.8452C59.4312 8.18481 59.043 8.26245 58.6807 8.41772C58.327 8.573 58.0121 8.78434 57.7361 9.05176C57.4687 9.31917 57.2573 9.63403 57.1021 9.99634C56.9468 10.35 56.8691 10.7339 56.8691 11.1479V21.1113C56.8691 21.5254 56.9468 21.9136 57.1021 22.2759C57.2573 22.6296 57.4687 22.9444 57.7361 23.2205C58.0121 23.4879 58.327 23.6992 58.6807 23.8545C59.043 24.0098 59.4312 24.0874 59.8452 24.0874H61.0098C61.4238 24.0874 61.8077 24.0098 62.1614 23.8545C62.5237 23.6992 62.8385 23.4879 63.106 23.2205C63.3734 22.9444 63.5847 22.6296 63.74 22.2759C63.8953 21.9136 63.9729 21.5254 63.9729 21.1113V20.1021L65.6421 20.3738V21.1113ZM69.3687 25.4072V6.85205H70.9602V25.4072H69.3687ZM83.5374 21.7712C83.5374 22.3061 83.4338 22.8107 83.2268 23.2852C83.0284 23.7596 82.7524 24.1737 82.3987 24.5273C82.045 24.881 81.6309 25.1614 81.1565 25.3684C80.682 25.5668 80.1774 25.666 79.6426 25.666H78.5815C78.0467 25.666 77.5421 25.5668 77.0676 25.3684C76.5932 25.1614 76.1791 24.881 75.8254 24.5273C75.4718 24.1737 75.1914 23.7596 74.9844 23.2852C74.786 22.8107 74.6868 22.3061 74.6868 21.7712V15.7932C74.6868 15.2584 74.786 14.7537 74.9844 14.2793C75.1914 13.8049 75.4718 13.3908 75.8254 13.0371C76.1791 12.6834 76.5932 12.4074 77.0676 12.209C77.5421 12.002 78.0467 11.8984 78.5815 11.8984H79.6426C80.1774 11.8984 80.682 12.002 81.1565 12.209C81.6309 12.4074 82.045 12.6834 82.3987 13.0371C82.7524 13.3908 83.0284 13.8049 83.2268 14.2793C83.4338 14.7537 83.5374 15.2584 83.5374 15.7932V18.9116H76.2783V21.8618C76.2783 22.181 76.3387 22.4829 76.4595 22.7676C76.5802 23.0436 76.7441 23.2852 76.9512 23.4922C77.1582 23.6992 77.3997 23.8631 77.6758 23.9839C77.9604 24.1047 78.2624 24.165 78.5815 24.165H79.6426C79.9618 24.165 80.2594 24.1047 80.5354 23.9839C80.8201 23.8631 81.0659 23.6992 81.2729 23.4922C81.48 23.2852 81.6439 23.0436 81.7646 22.7676C81.8854 22.4829 81.9458 22.181 81.9458 21.8618V20.9819L83.5374 21.2407V21.7712ZM81.9458 15.7026C81.9458 15.3835 81.8854 15.0859 81.7646 14.8098C81.6439 14.5251 81.48 14.2793 81.2729 14.0723C81.0659 13.8652 80.8201 13.7013 80.5354 13.5806C80.2594 13.4598 79.9618 13.3994 79.6426 13.3994H78.5815C78.2624 13.3994 77.9604 13.4598 77.6758 13.5806C77.3997 13.7013 77.1582 13.8652 76.9512 14.0723C76.7441 14.2793 76.5802 14.5251 76.4595 14.8098C76.3387 15.0859 76.2783 15.3835 76.2783 15.7026V17.6694H81.9458V15.7026ZM90.874 25.4072H90.0847L85.3877 12.1572H86.9792L90.4341 22.1982L90.4858 22.884L90.5376 22.1982L93.9795 12.1572H95.571L90.874 25.4072ZM106.285 21.7712C106.285 22.3061 106.181 22.8107 105.974 23.2852C105.776 23.7596 105.5 24.1737 105.146 24.5273C104.793 24.881 104.378 25.1614 103.904 25.3684C103.43 25.5668 102.925 25.666 102.39 25.666H101.329C100.794 25.666 100.29 25.5668 99.8152 25.3684C99.3407 25.1614 98.9267 24.881 98.573 24.5273C98.2193 24.1737 97.939 23.7596 97.7319 23.2852C97.5335 22.8107 97.4343 22.3061 97.4343 21.7712V15.7932C97.4343 15.2584 97.5335 14.7537 97.7319 14.2793C97.939 13.8049 98.2193 13.3908 98.573 13.0371C98.9267 12.6834 99.3407 12.4074 99.8152 12.209C100.29 12.002 100.794 11.8984 101.329 11.8984H102.39C102.925 11.8984 103.43 12.002 103.904 12.209C104.378 12.4074 104.793 12.6834 105.146 13.0371C105.5 13.3908 105.776 13.8049 105.974 14.2793C106.181 14.7537 106.285 15.2584 106.285 15.7932V18.9116H99.0259V21.8618C99.0259 22.181 99.0863 22.4829 99.207 22.7676C99.3278 23.0436 99.4917 23.2852 99.6987 23.4922C99.9058 23.6992 100.147 23.8631 100.423 23.9839C100.708 24.1047 101.01 24.165 101.329 24.165H102.39C102.709 24.165 103.007 24.1047 103.283 23.9839C103.568 23.8631 103.813 23.6992 104.021 23.4922C104.228 23.2852 104.391 23.0436 104.512 22.7676C104.633 22.4829 104.693 22.181 104.693 21.8618V20.9819L106.285 21.2407V21.7712ZM104.693 15.7026C104.693 15.3835 104.633 15.0859 104.512 14.8098C104.391 14.5251 104.228 14.2793 104.021 14.0723C103.813 13.8652 103.568 13.7013 103.283 13.5806C103.007 13.4598 102.709 13.3994 102.39 13.3994H101.329C101.01 13.3994 100.708 13.4598 100.423 13.5806C100.147 13.7013 99.9058 13.8652 99.6987 14.0723C99.4917 14.2793 99.3278 14.5251 99.207 14.8098C99.0863 15.0859 99.0259 15.3835 99.0259 15.7026V17.6694H104.693V15.7026ZM113.363 13.6711C113.044 13.6711 112.742 13.7315 112.457 13.8523C112.181 13.9731 111.939 14.137 111.732 14.344C111.525 14.551 111.361 14.7969 111.241 15.0815C111.12 15.3576 111.06 15.6552 111.06 15.9744V25.4072H109.468V12.1572H109.999L110.865 13.5029C111.228 13.0112 111.681 12.623 112.224 12.3384C112.776 12.0451 113.376 11.8984 114.023 11.8984H114.954V13.6711H113.363Z" fill="white"/>
<path d="M127.777 21.1113C127.777 21.741 127.648 22.3319 127.389 22.884C127.139 23.4361 126.798 23.9192 126.367 24.3333C125.944 24.7473 125.448 25.0751 124.879 25.3167C124.318 25.5496 123.723 25.666 123.093 25.666H121.76C121.131 25.666 120.531 25.5496 119.962 25.3167C119.401 25.0751 118.905 24.7473 118.474 24.3333C118.051 23.9192 117.71 23.4361 117.452 22.884C117.201 22.3319 117.076 21.741 117.076 21.1113V20.3738L118.746 20.1021V21.1113C118.746 21.5254 118.828 21.9136 118.991 22.2759C119.164 22.6296 119.393 22.9444 119.677 23.2205C119.962 23.4879 120.29 23.6992 120.661 23.8545C121.04 24.0098 121.437 24.0874 121.851 24.0874H123.016C123.43 24.0874 123.822 24.0098 124.193 23.8545C124.564 23.6992 124.892 23.4879 125.177 23.2205C125.461 22.9444 125.685 22.6296 125.849 22.2759C126.022 21.9136 126.108 21.5254 126.108 21.1113V20.5549C126.108 19.9166 125.983 19.3861 125.733 18.9634C125.483 18.5407 125.151 18.1827 124.737 17.8894C124.323 17.5875 123.852 17.333 123.326 17.126C122.809 16.9189 122.274 16.7119 121.722 16.5049C121.17 16.2979 120.63 16.0693 120.104 15.8191C119.587 15.5689 119.121 15.2584 118.707 14.8875C118.293 14.5079 117.961 14.0464 117.71 13.5029C117.46 12.9595 117.335 12.2909 117.335 11.4973V11.1479C117.335 10.5182 117.452 9.92733 117.685 9.37524C117.926 8.82316 118.254 8.34009 118.668 7.92603C119.082 7.51196 119.565 7.18848 120.117 6.95557C120.678 6.71403 121.273 6.59326 121.903 6.59326H123.093C123.723 6.59326 124.314 6.71403 124.866 6.95557C125.418 7.18848 125.901 7.51196 126.315 7.92603C126.729 8.34009 127.053 8.82316 127.286 9.37524C127.527 9.92733 127.648 10.5182 127.648 11.1479V11.6267L125.979 11.8984V11.1479C125.979 10.7339 125.901 10.35 125.746 9.99634C125.591 9.63403 125.379 9.31917 125.112 9.05176C124.844 8.78434 124.53 8.573 124.167 8.41772C123.814 8.26245 123.43 8.18481 123.016 8.18481H121.98C121.566 8.18481 121.178 8.26245 120.816 8.41772C120.462 8.573 120.147 8.78434 119.871 9.05176C119.604 9.31917 119.393 9.63403 119.237 9.99634C119.082 10.35 119.004 10.7339 119.004 11.1479V11.4973C119.004 12.0925 119.129 12.5929 119.38 12.9983C119.63 13.4037 119.962 13.7531 120.376 14.0464C120.79 14.3311 121.256 14.5812 121.773 14.7969C122.3 15.0039 122.839 15.2196 123.391 15.4438C123.943 15.6595 124.478 15.901 124.995 16.1685C125.522 16.4272 125.992 16.7507 126.406 17.1389C126.82 17.5185 127.152 17.9843 127.402 18.5364C127.652 19.0885 127.777 19.7613 127.777 20.5549V21.1113ZM139.695 21.7712C139.695 22.3061 139.591 22.8107 139.384 23.2852C139.186 23.7596 138.91 24.1737 138.556 24.5273C138.202 24.881 137.788 25.1614 137.314 25.3684C136.839 25.5668 136.335 25.666 135.8 25.666H134.739C134.204 25.666 133.699 25.5668 133.225 25.3684C132.75 25.1614 132.336 24.881 131.983 24.5273C131.629 24.1737 131.349 23.7596 131.142 23.2852C130.943 22.8107 130.844 22.3061 130.844 21.7712V15.7932C130.844 15.2584 130.943 14.7537 131.142 14.2793C131.349 13.8049 131.629 13.3908 131.983 13.0371C132.336 12.6834 132.75 12.4074 133.225 12.209C133.699 12.002 134.204 11.8984 134.739 11.8984H135.8C136.335 11.8984 136.839 12.002 137.314 12.209C137.788 12.4074 138.202 12.6834 138.556 13.0371C138.91 13.3908 139.186 13.8049 139.384 14.2793C139.591 14.7537 139.695 15.2584 139.695 15.7932V16.3237L138.103 16.5825V15.7026C138.103 15.3835 138.043 15.0859 137.922 14.8098C137.801 14.5251 137.637 14.2793 137.43 14.0723C137.223 13.8652 136.977 13.7013 136.693 13.5806C136.417 13.4598 136.119 13.3994 135.8 13.3994H134.739C134.42 13.3994 134.118 13.4598 133.833 13.5806C133.557 13.7013 133.315 13.8652 133.108 14.0723C132.901 14.2793 132.737 14.5251 132.617 14.8098C132.496 15.0859 132.436 15.3835 132.436 15.7026V21.8618C132.436 22.181 132.496 22.4829 132.617 22.7676C132.737 23.0436 132.901 23.2852 133.108 23.4922C133.315 23.6992 133.557 23.8631 133.833 23.9839C134.118 24.1047 134.42 24.165 134.739 24.165H135.8C136.119 24.165 136.417 24.1047 136.693 23.9839C136.977 23.8631 137.223 23.6992 137.43 23.4922C137.637 23.2852 137.801 23.0436 137.922 22.7676C138.043 22.4829 138.103 22.181 138.103 21.8618V20.9819L139.695 21.2407V21.7712ZM146.772 13.6711C146.453 13.6711 146.151 13.7315 145.867 13.8523C145.591 13.9731 145.349 14.137 145.142 14.344C144.935 14.551 144.771 14.7969 144.65 15.0815C144.53 15.3576 144.469 15.6552 144.469 15.9744V25.4072H142.878V12.1572H143.408L144.275 13.5029C144.637 13.0112 145.09 12.623 145.634 12.3384C146.186 12.0451 146.785 11.8984 147.432 11.8984H148.364V13.6711H146.772ZM159.337 21.7712C159.337 22.3061 159.233 22.8107 159.026 23.2852C158.828 23.7596 158.552 24.1737 158.198 24.5273C157.844 24.881 157.43 25.1614 156.956 25.3684C156.481 25.5668 155.977 25.666 155.442 25.666H154.381C153.846 25.666 153.341 25.5668 152.867 25.3684C152.392 25.1614 151.978 24.881 151.625 24.5273C151.271 24.1737 150.991 23.7596 150.784 23.2852C150.585 22.8107 150.486 22.3061 150.486 21.7712V15.7932C150.486 15.2584 150.585 14.7537 150.784 14.2793C150.991 13.8049 151.271 13.3908 151.625 13.0371C151.978 12.6834 152.392 12.4074 152.867 12.209C153.341 12.002 153.846 11.8984 154.381 11.8984H155.442C155.977 11.8984 156.481 12.002 156.956 12.209C157.43 12.4074 157.844 12.6834 158.198 13.0371C158.552 13.3908 158.828 13.8049 159.026 14.2793C159.233 14.7537 159.337 15.2584 159.337 15.7932V18.9116H152.078V21.8618C152.078 22.181 152.138 22.4829 152.259 22.7676C152.38 23.0436 152.543 23.2852 152.75 23.4922C152.958 23.6992 153.199 23.8631 153.475 23.9839C153.76 24.1047 154.062 24.165 154.381 24.165H155.442C155.761 24.165 156.059 24.1047 156.335 23.9839C156.619 23.8631 156.865 23.6992 157.072 23.4922C157.279 23.2852 157.443 23.0436 157.564 22.7676C157.685 22.4829 157.745 22.181 157.745 21.8618V20.9819L159.337 21.2407V21.7712ZM157.745 15.7026C157.745 15.3835 157.685 15.0859 157.564 14.8098C157.443 14.5251 157.279 14.2793 157.072 14.0723C156.865 13.8652 156.619 13.7013 156.335 13.5806C156.059 13.4598 155.761 13.3994 155.442 13.3994H154.381C154.062 13.3994 153.76 13.4598 153.475 13.5806C153.199 13.7013 152.958 13.8652 152.75 14.0723C152.543 14.2793 152.38 14.5251 152.259 14.8098C152.138 15.0859 152.078 15.3835 152.078 15.7026V17.6694H157.745V15.7026ZM171.37 21.7712C171.37 22.3061 171.267 22.8107 171.06 23.2852C170.861 23.7596 170.585 24.1737 170.232 24.5273C169.878 24.881 169.464 25.1614 168.99 25.3684C168.515 25.5668 168.01 25.666 167.476 25.666H166.415C165.88 25.666 165.375 25.5668 164.901 25.3684C164.426 25.1614 164.012 24.881 163.658 24.5273C163.305 24.1737 163.024 23.7596 162.817 23.2852C162.619 22.8107 162.52 22.3061 162.52 21.7712V15.7932C162.52 15.2584 162.619 14.7537 162.817 14.2793C163.024 13.8049 163.305 13.3908 163.658 13.0371C164.012 12.6834 164.426 12.4074 164.901 12.209C165.375 12.002 165.88 11.8984 166.415 11.8984H167.476C168.01 11.8984 168.515 12.002 168.99 12.209C169.464 12.4074 169.878 12.6834 170.232 13.0371C170.585 13.3908 170.861 13.8049 171.06 14.2793C171.267 14.7537 171.37 15.2584 171.37 15.7932V18.9116H164.111V21.8618C164.111 22.181 164.172 22.4829 164.292 22.7676C164.413 23.0436 164.577 23.2852 164.784 23.4922C164.991 23.6992 165.233 23.8631 165.509 23.9839C165.793 24.1047 166.095 24.165 166.415 24.165H167.476C167.795 24.165 168.092 24.1047 168.368 23.9839C168.653 23.8631 168.899 23.6992 169.106 23.4922C169.313 23.2852 169.477 23.0436 169.598 22.7676C169.718 22.4829 169.779 22.181 169.779 21.8618V20.9819L171.37 21.2407V21.7712ZM169.779 15.7026C169.779 15.3835 169.718 15.0859 169.598 14.8098C169.477 14.5251 169.313 14.2793 169.106 14.0723C168.899 13.8652 168.653 13.7013 168.368 13.5806C168.092 13.4598 167.795 13.3994 167.476 13.3994H166.415C166.095 13.3994 165.793 13.4598 165.509 13.5806C165.233 13.7013 164.991 13.8652 164.784 14.0723C164.577 14.2793 164.413 14.5251 164.292 14.8098C164.172 15.0859 164.111 15.3835 164.111 15.7026V17.6694H169.779V15.7026ZM181.812 25.4072V15.7026C181.812 15.3835 181.752 15.0859 181.631 14.8098C181.511 14.5251 181.347 14.2793 181.14 14.0723C180.933 13.8652 180.687 13.7013 180.402 13.5806C180.126 13.4598 179.828 13.3994 179.509 13.3994H178.448C178.129 13.3994 177.827 13.4598 177.542 13.5806C177.266 13.7013 177.025 13.8652 176.818 14.0723C176.611 14.2793 176.447 14.5251 176.326 14.8098C176.205 15.0859 176.145 15.3835 176.145 15.7026V25.4072H174.553V12.1572H175.084L175.951 13.5029C176.313 13.0112 176.766 12.623 177.31 12.3384C177.862 12.0451 178.461 11.8984 179.108 11.8984H179.509C180.044 11.8984 180.549 12.002 181.023 12.209C181.498 12.4074 181.912 12.6834 182.265 13.0371C182.619 13.3908 182.895 13.8049 183.094 14.2793C183.301 14.7537 183.404 15.2584 183.404 15.7932V25.4072H181.812Z" fill="#01FFCA"/>
<path d="M11.8192 32C9.25217 32 6.80543 31.1676 4.74642 29.5983C2.75426 28.0836 1.2568 25.9275 0.534808 23.5122C0.187183 22.3522 0 21.1514 0 19.9369H3.34255C3.34255 20.8102 3.47625 21.6836 3.71691 22.5023C4.82664 26.1322 8.0756 28.5748 11.8059 28.5748C15.5228 28.5748 18.7717 26.1458 19.8815 22.516C20.0152 22.0111 22.3282 13.264 23.5583 8.66525L23.5716 8.62431C24.2936 6.11343 25.7644 3.95736 27.8234 2.38806C29.8824 0.832409 32.3291 0 34.8962 0C38.0516 0 41.0197 1.25544 43.2526 3.53433C45.4854 5.81322 46.7154 8.84264 46.7154 12.0631H43.3729C43.3729 9.75693 42.4905 7.58721 40.886 5.94968C39.295 4.31215 37.1691 3.41151 34.8962 3.41151C31.1793 3.41151 27.8367 5.94968 26.7805 9.57953C23.1304 23.3484 23.1037 23.4712 23.0903 23.5122C22.3416 25.9821 20.8575 28.0972 18.8252 29.6392C16.7796 31.1812 14.3596 32 11.8192 32Z" fill="url(#paint0_linear_698_6008)"/>
<path d="M34.3079 24.7131H0.895803L0.534808 23.5122C0.187183 22.3523 0 21.1515 0 19.937C0 16.5528 1.29691 13.3732 3.63669 10.9852C5.97648 8.5971 9.09173 7.27344 12.4075 7.27344H45.8196L46.1806 8.47429C46.5283 9.6342 46.7154 10.8351 46.7154 12.0496C46.7154 15.4338 45.4185 18.6133 43.0788 21.0014C40.739 23.4031 37.6237 24.7131 34.3079 24.7131ZM3.44951 21.3016H34.3079C36.7279 21.3016 39.0008 20.3327 40.7122 18.586C42.4236 16.8393 43.3729 14.5195 43.3729 12.0496C43.3729 11.5856 43.3328 11.1353 43.2659 10.685H12.4075C9.98753 10.685 7.7146 11.6538 6.00322 13.4005C4.29183 15.1472 3.34255 17.467 3.34255 19.937C3.34255 20.4009 3.38266 20.8513 3.44951 21.3016Z" fill="white"/>
<defs>
<linearGradient id="paint0_linear_698_6008" x1="0.000652841" y1="15.9973" x2="46.7148" y2="15.9973" gradientUnits="userSpaceOnUse">
<stop offset="0.0534321" stop-color="#A000FF"/>
<stop offset="0.4907" stop-color="#218BEA"/>
<stop offset="0.9338" stop-color="#00FFC9"/>
</linearGradient>
</defs>
</svg>
