<svg width="92" height="61" viewBox="0 0 92 61" fill="none" xmlns="http://www.w3.org/2000/svg">
<path d="M23.2765 61C18.221 61 13.4024 59.4132 9.34745 56.4217C5.42416 53.5343 2.4751 49.4243 1.05323 44.82C0.368632 42.609 0 40.3198 0 38.0047H6.58271C6.58271 39.6695 6.84602 41.3343 7.31998 42.8951C9.50544 49.8145 15.9038 54.4708 23.2501 54.4708C30.5701 54.4708 36.9685 49.8405 39.154 42.9211C39.4173 41.9586 43.9725 25.2844 46.395 16.5181L46.4213 16.4401C47.8432 11.6537 50.7396 7.54371 54.7945 4.55224C58.8495 1.58678 63.668 0 68.7235 0C74.9376 0 80.7831 2.39318 85.1803 6.73731C89.5776 11.0815 92 16.8563 92 22.9953H85.4173C85.4173 18.5991 83.6794 14.4631 80.5197 11.3416C77.3864 8.22004 73.1998 6.5032 68.7235 6.5032C61.4035 6.5032 54.8208 11.3416 52.7407 18.261C45.5524 44.5079 45.4997 44.742 45.4734 44.82C43.9989 49.5284 41.0761 53.5603 37.0738 56.4998C33.0452 59.4392 28.2793 61 23.2765 61Z" fill="#11BC97"/>
<path d="M67.565 47.1096H1.76417L1.05323 44.8205C0.368632 42.6094 0 40.3202 0 38.0051C0 31.5539 2.55409 25.493 7.16199 20.9407C11.7699 16.3885 17.905 13.8652 24.435 13.8652H90.2358L90.9468 16.1544C91.6314 18.3654 92 20.6546 92 22.9697C92 29.4209 89.4459 35.4819 84.838 40.0341C80.2301 44.6124 74.095 47.1096 67.565 47.1096ZM6.79336 40.6064H67.565C72.3309 40.6064 76.8071 38.7595 80.1774 35.4298C83.5478 32.1002 85.4173 27.678 85.4173 22.9697C85.4173 22.0853 85.3383 21.2269 85.2066 20.3684H24.435C19.6691 20.3684 15.1929 22.2153 11.8226 25.545C8.4522 28.8746 6.58271 33.2968 6.58271 38.0051C6.58271 38.8895 6.66171 39.748 6.79336 40.6064Z" fill="#110133"/>
</svg>
