<svg width="122" height="100" viewBox="0 0 122 100" fill="none" xmlns="http://www.w3.org/2000/svg">
<path d="M60.6033 99.4926C85.237 99.4926 105.207 95.7613 105.207 91.1584C105.207 86.5556 85.237 82.8242 60.6033 82.8242C35.9696 82.8242 16 86.5556 16 91.1584C16 95.7613 35.9696 99.4926 60.6033 99.4926Z" fill="#F4F6FA"/>
<path fill-rule="evenodd" clip-rule="evenodd" d="M96.2855 66.6744L80.5454 47.3027C79.7901 46.3908 78.6862 45.8389 77.5237 45.8389H43.6816C42.5197 45.8389 41.4158 46.3908 40.6605 47.3027L24.9211 66.6744V76.7948H96.2862V66.6744H96.2855Z" fill="#11BC97"/>
<path d="M38.2566 21.3359H38.7566H82.9493C83.5147 21.3359 84.0568 21.5605 84.4566 21.9603C84.8563 22.36 85.0809 22.9022 85.0809 23.4675V84.878C85.0809 85.4434 84.8563 85.9855 84.4566 86.3853C84.0568 86.785 83.5147 87.0096 82.9493 87.0096H38.2566C37.6912 87.0096 37.1491 86.785 36.7493 86.3853C36.3496 85.9855 36.125 85.4434 36.125 84.878V23.4675C36.125 22.9022 36.3496 22.36 36.7493 21.9603C37.1491 21.5605 37.6912 21.3359 38.2566 21.3359Z" fill="white" stroke="#222735"/>
<path fill-rule="evenodd" clip-rule="evenodd" d="M44.0776 27.3838H77.1283C77.4773 27.3838 77.8119 27.5224 78.0587 27.7692C78.3055 28.0159 78.4441 28.3506 78.4441 28.6996V45.1187C78.4441 45.4676 78.3055 45.8023 78.0587 46.0491C77.8119 46.2958 77.4773 46.4344 77.1283 46.4344H44.0776C43.7287 46.4344 43.394 46.2958 43.1472 46.0491C42.9005 45.8023 42.7618 45.4676 42.7618 45.1187V28.6996C42.7618 28.3506 42.9005 28.0159 43.1472 27.7692C43.394 27.5224 43.7287 27.3838 44.0776 27.3838ZM44.25 53.5772H76.9559C77.3506 53.5772 77.7291 53.734 78.0082 54.0131C78.2873 54.2922 78.4441 54.6707 78.4441 55.0654C78.4441 55.4601 78.2873 55.8386 78.0082 56.1177C77.7291 56.3967 77.3506 56.5535 76.9559 56.5535H44.25C43.8553 56.5535 43.4768 56.3967 43.1977 56.1177C42.9186 55.8386 42.7618 55.4601 42.7618 55.0654C42.7618 54.6707 42.9186 54.2922 43.1977 54.0131C43.4768 53.734 43.8553 53.5772 44.25 53.5772ZM44.25 61.316H76.9559C77.3507 61.316 77.7293 61.4729 78.0084 61.752C78.2876 62.0311 78.4444 62.4097 78.4444 62.8045C78.4444 63.1993 78.2876 63.5779 78.0084 63.857C77.7293 64.1362 77.3507 64.293 76.9559 64.293H44.25C43.8552 64.293 43.4766 64.1362 43.1975 63.857C42.9183 63.5779 42.7615 63.1993 42.7615 62.8045C42.7615 62.4097 42.9183 62.0311 43.1975 61.752C43.4766 61.4729 43.8552 61.316 44.25 61.316ZM96.1401 89.9358C95.6303 91.9562 93.8395 93.4621 91.7092 93.4621H29.4967C27.3664 93.4621 25.5757 91.9555 25.0664 89.9358C24.9693 89.5508 24.9203 89.1552 24.9204 88.7581V66.6746H42.2349C44.1474 66.6746 45.6888 68.2851 45.6888 70.2404V70.2667C45.6888 72.2213 47.248 73.7996 49.1605 73.7996H72.0454C73.9579 73.7996 75.5171 72.2068 75.5171 70.2515V70.2437C75.5171 68.2884 77.0586 66.6739 78.9711 66.6739H96.2855V88.7588C96.2855 89.1647 96.2349 89.5588 96.1401 89.9358Z" fill="#222735"/>
<path fill-rule="evenodd" clip-rule="evenodd" d="M98.3165 21.9026L93.823 23.6461C93.7076 23.6909 93.5818 23.7023 93.4602 23.6789C93.3386 23.6555 93.2261 23.5982 93.1355 23.5137C93.045 23.4292 92.9802 23.3208 92.9485 23.2011C92.9169 23.0813 92.9197 22.9551 92.9566 22.8368L94.2309 18.7533C92.5276 16.8164 91.5276 14.4546 91.5276 11.9059C91.5276 5.33026 98.1842 0 106.396 0C114.606 0 121.263 5.33026 121.263 11.9059C121.263 18.4816 114.607 23.8118 106.395 23.8118C103.416 23.8118 100.643 23.1105 98.3165 21.9026Z" fill="#11BC97"/>
<path d="M112.253 14.0555C113.288 14.0555 114.127 13.2264 114.127 12.2035C114.127 11.1807 113.288 10.3516 112.253 10.3516C111.217 10.3516 110.378 11.1807 110.378 12.2035C110.378 13.2264 111.217 14.0555 112.253 14.0555Z" fill="white"/>
<path fill-rule="evenodd" clip-rule="evenodd" d="M102.413 13.8238H98.6645L100.571 10.583L102.413 13.8238ZM104.756 10.583H108.036V13.8238H104.756V10.583Z" fill="white"/>
</svg>
