<svg width="32" height="32" viewBox="0 0 32 32" fill="none" xmlns="http://www.w3.org/2000/svg">
<path d="M9.33335 6.66699C8.62611 6.66699 7.94783 6.94794 7.44774 7.44804C6.94764 7.94814 6.66669 8.62641 6.66669 9.33366V12.0003C6.66669 12.7076 6.94764 13.3858 7.44774 13.8859C7.94783 14.386 8.62611 14.667 9.33335 14.667H12C12.7073 14.667 13.3855 14.386 13.8856 13.8859C14.3857 13.3858 14.6667 12.7076 14.6667 12.0003V9.33366C14.6667 8.62641 14.3857 7.94814 13.8856 7.44804C13.3855 6.94794 12.7073 6.66699 12 6.66699H9.33335ZM9.33335 17.3337C8.62611 17.3337 7.94783 17.6146 7.44774 18.1147C6.94764 18.6148 6.66669 19.2931 6.66669 20.0003V22.667C6.66669 23.3742 6.94764 24.0525 7.44774 24.5526C7.94783 25.0527 8.62611 25.3337 9.33335 25.3337H12C12.7073 25.3337 13.3855 25.0527 13.8856 24.5526C14.3857 24.0525 14.6667 23.3742 14.6667 22.667V20.0003C14.6667 19.2931 14.3857 18.6148 13.8856 18.1147C13.3855 17.6146 12.7073 17.3337 12 17.3337H9.33335ZM17.3334 9.33366C17.3334 8.62641 17.6143 7.94814 18.1144 7.44804C18.6145 6.94794 19.2928 6.66699 20 6.66699H22.6667C23.3739 6.66699 24.0522 6.94794 24.5523 7.44804C25.0524 7.94814 25.3334 8.62641 25.3334 9.33366V12.0003C25.3334 12.7076 25.0524 13.3858 24.5523 13.8859C24.0522 14.386 23.3739 14.667 22.6667 14.667H20C19.2928 14.667 18.6145 14.386 18.1144 13.8859C17.6143 13.3858 17.3334 12.7076 17.3334 12.0003V9.33366ZM17.3334 20.0003C17.3334 19.2931 17.6143 18.6148 18.1144 18.1147C18.6145 17.6146 19.2928 17.3337 20 17.3337H22.6667C23.3739 17.3337 24.0522 17.6146 24.5523 18.1147C25.0524 18.6148 25.3334 19.2931 25.3334 20.0003V22.667C25.3334 23.3742 25.0524 24.0525 24.5523 24.5526C24.0522 25.0527 23.3739 25.3337 22.6667 25.3337H20C19.2928 25.3337 18.6145 25.0527 18.1144 24.5526C17.6143 24.0525 17.3334 23.3742 17.3334 22.667V20.0003Z" fill="#A7B2CD"/>
</svg>
