<svg width="24" height="24" viewBox="0 0 24 24" fill="none" xmlns="http://www.w3.org/2000/svg">
<path d="M12 10C15.866 10 19 8.657 19 7C19 5.343 15.866 4 12 4C8.134 4 5 5.343 5 7C5 8.657 8.134 10 12 10Z" fill="#636A7D"/>
<path d="M5 9V12C5 13.657 8.134 15 12 15C15.866 15 19 13.657 19 12V9C19 10.657 15.866 12 12 12C8.134 12 5 10.657 5 9Z" fill="#636A7D"/>
<path d="M5 14V17C5 18.657 8.134 20 12 20C15.866 20 19 18.657 19 17V14C19 15.657 15.866 17 12 17C8.134 17 5 15.657 5 14Z" fill="#636A7D"/>
</svg>
