<svg width="24" height="24" viewBox="0 0 24 24" fill="none" xmlns="http://www.w3.org/2000/svg">
<path fill-rule="evenodd" clip-rule="evenodd" d="M12 20C14.1217 20 16.1566 19.1571 17.6569 17.6569C19.1571 16.1566 20 14.1217 20 12C20 9.87827 19.1571 7.84344 17.6569 6.34315C16.1566 4.84285 14.1217 4 12 4C9.87827 4 7.84344 4.84285 6.34315 6.34315C4.84285 7.84344 4 9.87827 4 12C4 14.1217 4.84285 16.1566 6.34315 17.6569C7.84344 19.1571 9.87827 20 12 20ZM10.707 9.293C10.5184 9.11084 10.2658 9.01005 10.0036 9.01233C9.7414 9.0146 9.49059 9.11977 9.30518 9.30518C9.11977 9.49059 9.0146 9.7414 9.01233 10.0036C9.01005 10.2658 9.11084 10.5184 9.293 10.707L10.586 12L9.293 13.293C9.19749 13.3852 9.12131 13.4956 9.0689 13.6176C9.01649 13.7396 8.9889 13.8708 8.98775 14.0036C8.9866 14.1364 9.0119 14.2681 9.06218 14.391C9.11246 14.5139 9.18671 14.6255 9.2806 14.7194C9.3745 14.8133 9.48615 14.8875 9.60905 14.9378C9.73194 14.9881 9.86362 15.0134 9.9964 15.0123C10.1292 15.0111 10.2604 14.9835 10.3824 14.9311C10.5044 14.8787 10.6148 14.8025 10.707 14.707L12 13.414L13.293 14.707C13.4816 14.8892 13.7342 14.99 13.9964 14.9877C14.2586 14.9854 14.5094 14.8802 14.6948 14.6948C14.8802 14.5094 14.9854 14.2586 14.9877 13.9964C14.99 13.7342 14.8892 13.4816 14.707 13.293L13.414 12L14.707 10.707C14.8892 10.5184 14.99 10.2658 14.9877 10.0036C14.9854 9.7414 14.8802 9.49059 14.6948 9.30518C14.5094 9.11977 14.2586 9.0146 13.9964 9.01233C13.7342 9.01005 13.4816 9.11084 13.293 9.293L12 10.586L10.707 9.293Z" fill="#E66A8B"/>
</svg>
