<svg width="16" height="16" viewBox="0 0 16 16" fill="none" xmlns="http://www.w3.org/2000/svg">
<g clip-path="url(#clip0_734_26101)">
<path d="M7.99997 15.9999C12.4182 15.9999 15.9999 12.4182 15.9999 7.99997C15.9999 3.58171 12.4182 0 7.99997 0C3.58171 0 0 3.58171 0 7.99997C0 12.4182 3.58171 15.9999 7.99997 15.9999Z" fill="#F0F0F0"/>
<path d="M7.99995 0C5.3827 0 3.05914 1.25697 1.59961 3.2H14.4003C12.9408 1.25694 10.6172 0 7.99995 0Z" fill="#0052B4"/>
<path d="M7.99995 15.9998C10.6172 15.9998 12.9408 14.7428 14.4003 12.7998H1.59961C3.05911 14.7429 5.3827 15.9998 7.99995 15.9998Z" fill="#0052B4"/>
<path d="M0 8.00039C0 8.54836 0.05525 9.08342 0.160219 9.60039H15.8398C15.9448 9.08342 16 8.54836 16 8.00039C16 7.45242 15.9447 6.91736 15.8398 6.40039H0.160219C0.05525 6.91736 0 7.45242 0 8.00039Z" fill="#0052B4"/>
<path d="M2.34312 2.34277C-0.781039 5.46693 -0.781039 10.5323 2.34312 13.6565C3.63415 12.3655 4.87577 11.1238 7.99996 7.99965L2.34312 2.34277Z" fill="#D80027"/>
<path d="M3.2378 5.91309L3.75574 7.5073H5.43218L4.07602 8.49268L4.59396 10.0869L3.2378 9.10162L1.88158 10.0869L2.39964 8.49268L1.04346 7.5073H2.71977L3.2378 5.91309Z" fill="#F0F0F0"/>
</g>
<defs>
<clipPath id="clip0_734_26101">
<rect width="16" height="16" fill="white"/>
</clipPath>
</defs>
</svg>
