<svg width="24" height="24" viewBox="0 0 24 24" fill="none" xmlns="http://www.w3.org/2000/svg">
<path fill-rule="evenodd" clip-rule="evenodd" d="M12 4C11.7348 4 11.4804 4.10536 11.2929 4.29289C11.1054 4.48043 11 4.73478 11 5V6C11 6.26522 11.1054 6.51957 11.2929 6.70711C11.4804 6.89464 11.7348 7 12 7C12.2652 7 12.5196 6.89464 12.7071 6.70711C12.8946 6.51957 13 6.26522 13 6V5C13 4.73478 12.8946 4.48043 12.7071 4.29289C12.5196 4.10536 12.2652 4 12 4ZM6 6H9C9 6.79565 9.31607 7.55871 9.87868 8.12132C10.4413 8.68393 11.2044 9 12 9C12.7956 9 13.5587 8.68393 14.1213 8.12132C14.6839 7.55871 15 6.79565 15 6H18C18.5304 6 19.0391 6.21071 19.4142 6.58579C19.7893 6.96086 20 7.46957 20 8V17C20 17.5304 19.7893 18.0391 19.4142 18.4142C19.0391 18.7893 18.5304 19 18 19H6C5.46957 19 4.96086 18.7893 4.58579 18.4142C4.21071 18.0391 4 17.5304 4 17V8C4 7.46957 4.21071 6.96086 4.58579 6.58579C4.96086 6.21071 5.46957 6 6 6ZM8.5 13C8.89782 13 9.27936 12.842 9.56066 12.5607C9.84196 12.2794 10 11.8978 10 11.5C10 11.1022 9.84196 10.7206 9.56066 10.4393C9.27936 10.158 8.89782 10 8.5 10C8.10218 10 7.72064 10.158 7.43934 10.4393C7.15804 10.7206 7 11.1022 7 11.5C7 11.8978 7.15804 12.2794 7.43934 12.5607C7.72064 12.842 8.10218 13 8.5 13ZM10.95 17C11.0237 16.6369 11.0158 16.262 10.9269 15.9023C10.8379 15.5426 10.6702 15.2072 10.4357 14.9204C10.2012 14.6335 9.90591 14.4023 9.57114 14.2436C9.23637 14.0849 8.8705 14.0025 8.5 14.0025C8.1295 14.0025 7.76363 14.0849 7.42886 14.2436C7.09409 14.4023 6.79879 14.6335 6.56432 14.9204C6.32985 15.2072 6.16207 15.5426 6.07312 15.9023C5.98417 16.262 5.97627 16.6369 6.05 17H10.95ZM14 11C13.7348 11 13.4804 11.1054 13.2929 11.2929C13.1054 11.4804 13 11.7348 13 12C13 12.2652 13.1054 12.5196 13.2929 12.7071C13.4804 12.8946 13.7348 13 14 13H17C17.2652 13 17.5196 12.8946 17.7071 12.7071C17.8946 12.5196 18 12.2652 18 12C18 11.7348 17.8946 11.4804 17.7071 11.2929C17.5196 11.1054 17.2652 11 17 11H14ZM13 15C13 14.7348 13.1054 14.4804 13.2929 14.2929C13.4804 14.1054 13.7348 14 14 14H16C16.2652 14 16.5196 14.1054 16.7071 14.2929C16.8946 14.4804 17 14.7348 17 15C17 15.2652 16.8946 15.5196 16.7071 15.7071C16.5196 15.8946 16.2652 16 16 16H14C13.7348 16 13.4804 15.8946 13.2929 15.7071C13.1054 15.5196 13 15.2652 13 15Z" fill="#636A7D"/>
</svg>
