<svg width="24" height="24" viewBox="0 0 24 24" fill="none" xmlns="http://www.w3.org/2000/svg">
<path d="M6.58579 4.58579C6.21071 4.96086 6 5.46957 6 6V11.528C7.14308 10.5062 8.63396 9.96074 10.1666 10.0036C11.6992 10.0465 13.1572 10.6745 14.2414 11.7586C15.3255 12.8428 15.9535 14.3008 15.9964 15.8334C16.0393 17.366 15.4938 18.8569 14.472 20H16C16.5304 20 17.0391 19.7893 17.4142 19.4142C17.7893 19.0391 18 18.5304 18 18V9.414C17.9999 8.88361 17.7891 8.37499 17.414 8L14 4.586C13.625 4.2109 13.1164 4.00011 12.586 4H8C7.46957 4 6.96086 4.21071 6.58579 4.58579Z" fill="white"/>
<path fill-rule="evenodd" clip-rule="evenodd" d="M7.99174 12.5403C8.6018 12.1863 9.29462 11.9999 9.99996 12C10.615 12.0001 11.2217 12.1421 11.7729 12.4149C12.3242 12.6876 12.8051 13.0838 13.1783 13.5727C13.5515 14.0615 13.807 14.6298 13.9249 15.2335C14.0427 15.8371 14.0198 16.4598 13.8579 17.0531C13.696 17.6464 13.3994 18.1944 12.9913 18.6545C12.5831 19.1146 12.0744 19.4743 11.5046 19.7058C10.9348 19.9373 10.3193 20.0343 9.7059 19.9892C9.09252 19.9442 8.4978 19.7583 7.96796 19.446L6.70696 20.707C6.61405 20.7998 6.50376 20.8735 6.38239 20.9237C6.26103 20.9739 6.13095 20.9997 5.99961 20.9997C5.86826 20.9997 5.7382 20.9737 5.61687 20.9234C5.49554 20.8731 5.3853 20.7994 5.29246 20.7065C5.19961 20.6136 5.12598 20.5033 5.07576 20.3819C5.02553 20.2606 4.99971 20.1305 4.99976 19.9991C4.9998 19.8678 5.02572 19.7377 5.07603 19.6164C5.12633 19.4951 5.20005 19.3848 5.29296 19.292L6.55396 18.032C6.19565 17.4245 6.00436 16.733 5.99948 16.0276C5.99461 15.3223 6.17632 14.6283 6.5262 14.0158C6.87608 13.4034 7.38168 12.8943 7.99174 12.5403ZM8.58574 14.5858C8.21067 14.9609 7.99996 15.4696 7.99996 16C7.99996 16.5304 8.21067 17.0391 8.58574 17.4142C8.96082 17.7893 9.46953 18 9.99996 18C10.5304 18 11.0391 17.7893 11.4142 17.4142C11.7892 17.0391 12 16.5304 12 16C12 15.4696 11.7892 14.9609 11.4142 14.5858C11.0391 14.2107 10.5304 14 9.99996 14C9.46953 14 8.96082 14.2107 8.58574 14.5858Z" fill="white"/>
</svg>
