<svg width="24" height="24" viewBox="0 0 24 24" fill="none" xmlns="http://www.w3.org/2000/svg">
<path d="M5 5C4.73478 5 4.48043 5.10536 4.29289 5.29289C4.10536 5.48043 4 5.73478 4 6C4 6.26522 4.10536 6.51957 4.29289 6.70711C4.48043 6.89464 4.73478 7 5 7H16C16.2652 7 16.5196 6.89464 16.7071 6.70711C16.8946 6.51957 17 6.26522 17 6C17 5.73478 16.8946 5.48043 16.7071 5.29289C16.5196 5.10536 16.2652 5 16 5H5ZM5 9C4.73478 9 4.48043 9.10536 4.29289 9.29289C4.10536 9.48043 4 9.73478 4 10C4 10.2652 4.10536 10.5196 4.29289 10.7071C4.48043 10.8946 4.73478 11 5 11H12C12.2652 11 12.5196 10.8946 12.7071 10.7071C12.8946 10.5196 13 10.2652 13 10C13 9.73478 12.8946 9.48043 12.7071 9.29289C12.5196 9.10536 12.2652 9 12 9H5ZM5 13C4.73478 13 4.48043 13.1054 4.29289 13.2929C4.10536 13.4804 4 13.7348 4 14C4 14.2652 4.10536 14.5196 4.29289 14.7071C4.48043 14.8946 4.73478 15 5 15H9C9.26522 15 9.51957 14.8946 9.70711 14.7071C9.89464 14.5196 10 14.2652 10 14C10 13.7348 9.89464 13.4804 9.70711 13.2929C9.51957 13.1054 9.26522 13 9 13H5ZM17 10C17 9.73478 16.8946 9.48043 16.7071 9.29289C16.5196 9.10536 16.2652 9 16 9C15.7348 9 15.4804 9.10536 15.2929 9.29289C15.1054 9.48043 15 9.73478 15 10V15.586L13.707 14.293C13.5184 14.1108 13.2658 14.01 13.0036 14.0123C12.7414 14.0146 12.4906 14.1198 12.3052 14.3052C12.1198 14.4906 12.0146 14.7414 12.0123 15.0036C12.01 15.2658 12.1108 15.5184 12.293 15.707L15.293 18.707C15.4805 18.8945 15.7348 18.9998 16 18.9998C16.2652 18.9998 16.5195 18.8945 16.707 18.707L19.707 15.707C19.8892 15.5184 19.99 15.2658 19.9877 15.0036C19.9854 14.7414 19.8802 14.4906 19.6948 14.3052C19.5094 14.1198 19.2586 14.0146 18.9964 14.0123C18.7342 14.01 18.4816 14.1108 18.293 14.293L17 15.586V10Z" fill="#636A7D"/>
</svg>
