<svg width="24" height="24" viewBox="0 0 24 24" fill="none" xmlns="http://www.w3.org/2000/svg">
<path d="M6.07213 20C4.7533 20 3.49628 19.5838 2.43847 18.7991C1.415 18.0418 0.645678 16.9637 0.274756 15.7561C0.0961649 15.1761 0 14.5757 0 13.9684H1.71723C1.71723 14.4051 1.78592 14.8418 1.90956 15.2512C2.47968 17.0661 4.14882 18.2874 6.06524 18.2874C7.97481 18.2874 9.64396 17.0729 10.2141 15.258C10.2828 15.0055 11.4711 10.632 12.103 8.33262L12.1099 8.31216C12.4808 7.05671 13.2364 5.97868 14.2942 5.19403C15.352 4.4162 16.609 4 17.9279 4C19.5489 4 21.0739 4.62772 22.2209 5.76716C23.3681 6.90662 24 8.42132 24 10.0316H22.2828C22.2828 8.87845 21.8294 7.7936 21.0051 6.97485C20.1878 6.15608 19.0956 5.70576 17.9279 5.70576C16.0183 5.70576 14.3011 6.97484 13.7584 8.78977C11.8832 15.6742 11.8695 15.7356 11.8626 15.7561C11.478 16.9911 10.7155 18.0486 9.67143 18.8196C8.62049 19.5906 7.37721 20 6.07213 20Z" fill="#11BC97"/>
<path d="M17.6257 16.3566H0.460218L0.274756 15.7562C0.0961649 15.1762 0 14.5758 0 13.9686C0 12.2764 0.666284 10.6867 1.86835 9.49265C3.07041 8.29863 4.67087 7.63678 6.37435 7.63678H23.5398L23.7253 8.23723C23.9038 8.81716 24 9.41761 24 10.0248C24 11.717 23.3337 13.3067 22.1317 14.5008C20.9296 15.7016 19.3291 16.3566 17.6257 16.3566ZM1.77218 14.6509H17.6257C18.8689 14.6509 20.0366 14.1664 20.9158 13.2931C21.7951 12.4197 22.2828 11.2598 22.2828 10.0248C22.2828 9.79287 22.2622 9.56772 22.2278 9.34254H6.37435C5.13107 9.34254 3.96337 9.82697 3.08416 10.7003C2.20492 11.5737 1.71723 12.7336 1.71723 13.9686C1.71723 14.2005 1.73784 14.4257 1.77218 14.6509Z" fill="#110133"/>
</svg>
